<svg xmlns="http://www.w3.org/2000/svg" version="1.1" xmlns:xlink="http://www.w3.org/1999/xlink"
    width="512" height="512" x="0" y="0" viewBox="0 0 512 512"
    style="enable-background:new 0 0 512 512" xml:space="preserve" class=""><g><path fill="#f1f4f7" d="M336.333 48.2c-25.989 0-47.133 21.144-47.133 47.133s21.144 47.133 47.133 47.133 47.133-21.144 47.133-47.133S362.323 48.2 336.333 48.2zm0 64.267c-9.447 0-17.133-7.686-17.133-17.133S326.886 78.2 336.333 78.2s17.133 7.686 17.133 17.133-7.685 17.134-17.133 17.134z" opacity="1" data-original="#f1f4f7"></path><path fill="#d3e1eb" d="M336.333 78.2c9.447 0 17.133 7.686 17.133 17.133s-7.686 17.133-17.133 17.133v30c25.989 0 47.133-21.144 47.133-47.133S362.323 48.2 336.333 48.2z" opacity="1" data-original="#d3e1eb"></path><path fill="#f1f4f7" d="m212.12 185.132-26.976-26.976c-5.858-5.858-5.858-15.355 0-21.213 5.857-5.858 15.355-5.858 21.213 0l26.976 26.976c5.858 5.858 5.858 15.355 0 21.213-5.859 5.859-15.357 5.857-21.213 0z" opacity="1" data-original="#f1f4f7"></path><path fill="#d3e1eb" d="M439.334 185.133c-5.858-5.858-5.858-15.355 0-21.213l26.976-26.976c5.858-5.858 15.356-5.858 21.213 0 5.858 5.857 5.858 15.355 0 21.213l-26.976 26.976c-5.858 5.858-15.356 5.856-21.213 0z" opacity="1" data-original="#d3e1eb"></path><circle cx="336.333" cy="288.133" r="175.667" fill="#d3e1eb" transform="rotate(-45 336.306 288.216)" opacity="1" data-original="#d3e1eb"></circle><path fill="#b4cfde" d="M336.333 112.467c96.863 0 175.667 78.804 175.667 175.667S433.196 463.8 336.333 463.8z" opacity="1" data-original="#b4cfde"></path><path fill="#f1f4f7" d="M449.425 370.75c-7.175-4.141-9.636-13.314-5.495-20.489s13.314-9.635 20.489-5.495l4.886 2.82a144.501 144.501 0 0 0 11.927-44.452h-5.753c-8.284 0-15-6.716-15-15s6.716-15 15-15h5.753a144.494 144.494 0 0 0-11.927-44.452l-4.886 2.82c-7.176 4.14-16.348 1.68-20.489-5.495s-1.68-16.349 5.495-20.489l4.834-2.79a146.901 146.901 0 0 0-32.519-32.519l-2.789 4.834c-4.14 7.175-13.313 9.635-20.489 5.495-7.175-4.141-9.636-13.313-5.495-20.489l2.819-4.886a144.53 144.53 0 0 0-44.452-11.927v5.657c0 8.284-6.716 15-15 15s-15-6.716-15-15v-5.657a144.507 144.507 0 0 0-44.453 11.927l2.82 4.886c4.141 7.175 1.68 16.349-5.495 20.489-7.175 4.139-16.349 1.68-20.489-5.495l-2.79-4.834a146.88 146.88 0 0 0-32.519 32.519l4.834 2.79c7.175 4.141 9.636 13.314 5.495 20.489s-13.313 9.634-20.489 5.495l-4.886-2.82a144.494 144.494 0 0 0-11.927 44.452h5.657c8.284 0 15 6.716 15 15s-6.716 15-15 15h-5.657a144.507 144.507 0 0 0 11.927 44.453l4.886-2.82c7.175-4.14 16.349-1.68 20.489 5.495 4.141 7.175 1.68 16.349-5.495 20.489l-4.834 2.79a146.901 146.901 0 0 0 32.519 32.519l2.79-4.834c4.141-7.175 13.314-9.635 20.489-5.495 7.175 4.141 9.636 13.314 5.495 20.489l-2.82 4.886a144.53 144.53 0 0 0 44.452 11.927v-5.657c0-8.284 6.716-15 15-15s15 6.716 15 15v5.657a144.494 144.494 0 0 0 44.452-11.927l-2.819-4.886c-4.141-7.176-1.68-16.349 5.495-20.489 7.178-4.142 16.349-1.68 20.489 5.495l2.789 4.834a146.901 146.901 0 0 0 32.519-32.519z" opacity="1" data-original="#f1f4f7"></path><path fill="#d3e1eb" d="M336.333 412.375c8.284 0 15 6.716 15 15v5.657a144.494 144.494 0 0 0 44.452-11.927l-2.819-4.886c-4.141-7.176-1.68-16.349 5.495-20.489 7.178-4.142 16.349-1.68 20.489 5.495l2.789 4.834a146.901 146.901 0 0 0 32.519-32.519l-4.834-2.79c-7.175-4.141-9.636-13.314-5.495-20.489s13.314-9.635 20.489-5.495l4.886 2.82a144.501 144.501 0 0 0 11.927-44.452h-5.753c-8.284 0-15-6.716-15-15s6.716-15 15-15h5.753a144.494 144.494 0 0 0-11.927-44.452l-4.886 2.82c-7.176 4.14-16.348 1.68-20.489-5.495s-1.68-16.349 5.495-20.489l4.834-2.79a146.901 146.901 0 0 0-32.519-32.519l-2.789 4.834c-4.14 7.175-13.313 9.635-20.489 5.495-7.175-4.141-9.636-13.313-5.495-20.489l2.819-4.886a144.53 144.53 0 0 0-44.452-11.927v5.657c0 8.284-6.716 15-15 15z" opacity="1" data-original="#d3e1eb"></path><g fill="#00beff"><path d="M95.333 303.133H15c-8.284 0-15-6.716-15-15s6.716-15 15-15h80.333c8.284 0 15 6.716 15 15s-6.715 15-15 15zM111.4 238.867H47.133c-8.284 0-15-6.716-15-15s6.716-15 15-15H111.4c8.284 0 15 6.716 15 15s-6.716 15-15 15zM127.467 431.667h-48.2c-8.284 0-15-6.716-15-15s6.716-15 15-15h48.2c8.284 0 15 6.716 15 15s-6.716 15-15 15zM127.467 174.6h-48.2c-8.284 0-15-6.716-15-15s6.716-15 15-15h48.2c8.284 0 15 6.716 15 15s-6.716 15-15 15zM111.4 367.4H47.133c-8.284 0-15-6.716-15-15s6.716-15 15-15H111.4c8.284 0 15 6.716 15 15s-6.716 15-15 15z" fill="#00beff" opacity="1" data-original="#00beff"></path></g><path fill="#001824" d="M325.727 298.74c-5.858-5.857-5.858-15.355 0-21.213l48.2-48.2c5.857-5.858 15.355-5.858 21.213 0 5.858 5.857 5.858 15.355 0 21.213l-48.2 48.2c-5.858 5.859-15.357 5.857-21.213 0z" opacity="1" data-original="#001824"></path></g></svg>