<svg xmlns="http://www.w3.org/2000/svg" version="1.1" xmlns:xlink="http://www.w3.org/1999/xlink" width="512" height="512" x="0" y="0" viewBox="0 0 64 64" style="enable-background:new 0 0 512 512" xml:space="preserve" fill-rule="evenodd" class=""><g><g fill="#738bab"><path d="M27.815 20.643a10.14 10.14 0 0 1 2.731-.641.5.5 0 1 0-.099-.995 11.111 11.111 0 0 0-3.001.707.499.499 0 1 0 .369.929zM32.996 19.983c1.182.089 2.264.108 3.252.066a.5.5 0 1 0-.041-.999c-.953.04-1.996.021-3.136-.065a.501.501 0 0 0-.075.998zM38.948 19.753c1.166-.219 2.155-.543 2.986-.942a.5.5 0 0 0-.433-.902c-.762.366-1.669.661-2.738.862a.5.5 0 1 0 .185.982zM43.972 17.422c.896-.865 1.422-1.861 1.659-2.874a.5.5 0 0 0-.974-.228c-.196.841-.636 1.665-1.379 2.382a.5.5 0 1 0 .694.72zM45.393 11.105c-.397-1.054-1.07-1.949-1.89-2.515a.5.5 0 0 0-.567.824c.663.457 1.2 1.189 1.521 2.043a.5.5 0 0 0 .936-.352zM32.365 8.588c.549-2.576 2.737-3.829 4.315-3.838.518-.003.967.119 1.2.431.138.185.18.433.127.737a.5.5 0 0 0 .986.17c.108-.625-.028-1.126-.312-1.505-.397-.533-1.125-.838-2.006-.833-1.921.011-4.62 1.494-5.288 4.63a.5.5 0 1 0 .978.208z" fill="#738bab" opacity="1" data-original="#738bab"></path><path d="M31.391 8.59c.677 3.12 3.366 4.596 5.282 4.608.949.005 1.718-.348 2.094-.959.227-.368.326-.837.22-1.41-.13-.705-.594-1.608-1.565-2.68a.5.5 0 1 0-.741.671c.676.747 1.077 1.384 1.253 1.919.133.408.13.735-.018.976-.134.217-.374.348-.663.42-.363.09-.798.083-1.257-.014-1.467-.31-3.149-1.537-3.627-3.743a.501.501 0 0 0-.978.212z" fill="#738bab" opacity="1" data-original="#738bab"></path></g><path fill="#2d74ff" d="M31.744 9.484h6.695a1 1 0 0 0 0-2h-6.695a1 1 0 0 0 0 2z" opacity="1" data-original="#2d74ff"></path><path fill="#738bab" d="M11.5 48.52v5.609c0 1.104.724 2.077 1.782 2.394l18 5.4a2.49 2.49 0 0 0 1.436 0l18-5.4a2.499 2.499 0 0 0 1.782-2.394v-7.997a.5.5 0 0 0-1 0v7.997c0 .662-.435 1.246-1.069 1.437l-18 5.4a1.506 1.506 0 0 1-.862 0l-18-5.4a1.502 1.502 0 0 1-1.069-1.437V48.52a.5.5 0 0 0-1 0z" opacity="1" data-original="#738bab"></path><path fill="#738bab" d="M10.336 37.19 6.51 42.862a1.498 1.498 0 0 0 .78 2.265l17.995 5.847a1.501 1.501 0 0 0 1.706-.585l5.423-8.002a.5.5 0 0 0-.26-.756l-20-6.49a.501.501 0 0 0-.308.952l19.367 6.284-5.05 7.451a.5.5 0 0 1-.569.195L7.599 44.176a.5.5 0 0 1-.26-.755l3.826-5.672a.5.5 0 1 0-.829-.559z" opacity="1" data-original="#738bab"></path><path fill="#738bab" d="m49.001 36.064-17.155 5.567a.5.5 0 1 0 .308.951l17.155-5.566a.5.5 0 0 0-.308-.952z" opacity="1" data-original="#738bab"></path><path fill="#738bab" d="m33.002 44.476 4.007 5.913c.375.553 1.07.791 1.706.585l17.995-5.847a1.498 1.498 0 0 0 .78-2.265l-5.075-7.525a.502.502 0 0 0-.695-.135.502.502 0 0 0-.135.695l5.076 7.524a.502.502 0 0 1-.26.755l-17.995 5.847a.5.5 0 0 1-.569-.195l-4.007-5.913a.5.5 0 0 0-.828.561zM15.192 35.104l16.963-5.522a.502.502 0 0 0 .258-.757l-4.841-7.12a1.5 1.5 0 0 0-1.704-.583L7.872 26.969a1.502 1.502 0 0 0-.78 2.266l4.493 6.662a.501.501 0 0 0 .83-.56l-4.494-6.661a.501.501 0 0 1 .26-.756l17.996-5.847a.5.5 0 0 1 .568.194l4.467 6.57-16.329 5.316a.5.5 0 0 0 .309.951z" opacity="1" data-original="#738bab"></path><path fill="#738bab" d="m31.845 29.582 20 6.51a.5.5 0 0 0 .57-.195l4.493-6.662a1.502 1.502 0 0 0-.78-2.266l-17.996-5.847a1.5 1.5 0 0 0-1.704.583l-3.498 5.144a.5.5 0 0 0 .827.563l3.498-5.145a.5.5 0 0 1 .568-.194l17.996 5.847a.503.503 0 0 1 .26.756l-4.283 6.349-19.641-6.394a.5.5 0 0 0-.31.951z" opacity="1" data-original="#738bab"></path><path fill="#2d74ff" d="M47.147 35.615 32 40.529l-15.147-4.914L32 30.684z" opacity="1" data-original="#2d74ff"></path><path fill="#738bab" d="M26.998 29.06c-.269-.379-.5-.76-.694-1.141a.5.5 0 0 0-.891.454c.215.423.471.846.77 1.267a.5.5 0 0 0 .815-.58zM25.611 25.839a5.483 5.483 0 0 1-.015-1.661.5.5 0 0 0-.99-.145 6.522 6.522 0 0 0 .017 1.961.5.5 0 0 0 .988-.155z" opacity="1" data-original="#738bab"></path></g></svg>