<svg xmlns="http://www.w3.org/2000/svg" version="1.1" xmlns:xlink="http://www.w3.org/1999/xlink"
    width="512" height="512" x="0" y="0" viewBox="0 0 512 512"
    style="enable-background:new 0 0 512 512" xml:space="preserve" class=""><g><circle cx="256" cy="256" r="256" fill="#417fef" opacity="1" data-original="#417fef"></circle><path fill="#2056c4" d="m216.295 454.862 56.571 56.571C406.386 502.746 512 391.716 512 256c0-28.852-4.777-56.588-13.577-82.465l-78.008-78.008z" opacity="1" data-original="#2056c4" class=""></path><path fill="#ffed6e" d="m256 122.891-164.416 36.38 124.711 150.081v145.51L256 436.374l14.422-82.57 67.786-178.545z" opacity="1" data-original="#ffed6e" class=""></path><path fill="#ffc81a" d="M256 122.891v313.483l37.066-17.258V309.352l127.349-150.081z" opacity="1" data-original="#ffc81a" class=""></path><path fill="#ffba5f" d="M256 159.271H91.585V95.528H256l32.291 29.696z" opacity="1" data-original="#ffba5f"></path><path fill="#f49537" d="M256 95.528h164.415v63.743H256z" opacity="1" data-original="#f49537"></path><path fill="#fe646f" d="M281.498 284.067c0-41.48 33.626-75.106 75.106-75.106 0 0 52.46 33.626 52.46 75.106s-52.46 75.106-52.46 75.106c-41.48 0-75.106-33.626-75.106-75.106z" opacity="1" data-original="#fe646f"></path><path fill="#e53950" d="M356.604 208.962v150.211c41.48 0 75.106-33.626 75.106-75.106-.001-41.479-33.626-75.105-75.106-75.105z" opacity="1" data-original="#e53950"></path><path fill="#ffffff" d="m399.556 305.806-21.739-21.739 21.739-21.738-21.214-21.214-21.738 21.739-21.739-21.739-21.213 21.214 21.739 21.738-21.739 21.739 21.213 21.213 21.739-21.738 21.738 21.738z" opacity="1" data-original="#ffffff" class=""></path><path fill="#e0e0e0" d="m399.556 262.329-21.214-21.214-21.738 21.739v42.427l21.738 21.738 21.214-21.213-21.739-21.739z" opacity="1" data-original="#e0e0e0" class=""></path></g></svg>