<?xml version="1.0" standalone="no"?><!DOCTYPE svg PUBLIC "-//W3C//DTD SVG 1.1//EN" "http://www.w3.org/Graphics/SVG/1.1/DTD/svg11.dtd"><svg height="1024" node-id="1" sillyvg="true" template-height="1024" template-width="1024" version="1.1" viewBox="0 0 1024 1024" width="1024" xmlns="http://www.w3.org/2000/svg" xmlns:xlink="http://www.w3.org/1999/xlink"><defs node-id="57"><linearGradient gradientUnits="objectBoundingBox" id="linearGradient-3" node-id="6" spreadMethod="pad" x1="0.070435904" x2="0.5891686" y1="0.4843017" y2="0.503498"><stop offset="0" stop-color="#3a58dd" stop-opacity="0"></stop><stop offset="1" stop-color="#4164ff" stop-opacity="0.84686404"></stop></linearGradient><linearGradient gradientUnits="objectBoundingBox" id="linearGradient-4" node-id="9" spreadMethod="pad" x1="0.54795724" x2="0.892556" y1="0.2548272" y2="0.95809656"><stop offset="0" stop-color="#3a58dd"></stop><stop offset="0.65725714" stop-color="#7192f3"></stop><stop offset="1" stop-color="#92c5ff"></stop></linearGradient><linearGradient gradientUnits="objectBoundingBox" id="linearGradient-5" node-id="13" spreadMethod="pad" x1="-0.0769814" x2="0.98268074" y1="0.2921705" y2="0.7450807"><stop offset="0" stop-color="#2362ff"></stop><stop offset="1" stop-color="#cce4ff"></stop></linearGradient><linearGradient gradientUnits="objectBoundingBox" id="linearGradient-6" node-id="16" spreadMethod="pad" x1="0.00000000000000085348395" x2="1" y1="0.4310092" y2="0.58520335"><stop offset="0" stop-color="#4665ec"></stop><stop offset="0.6021588" stop-color="#4c70f6"></stop><stop offset="1" stop-color="#6d8efb"></stop></linearGradient><linearGradient gradientUnits="objectBoundingBox" id="linearGradient-7" node-id="20" spreadMethod="pad" x1="0.021420369" x2="1.0346094" y1="0.31554464" y2="0.8184584"><stop offset="0" stop-color="#5185ff"></stop><stop offset="1" stop-color="#89bbff"></stop></linearGradient><linearGradient gradientUnits="objectBoundingBox" id="linearGradient-8" node-id="23" spreadMethod="pad" x1="0.80012864" x2="0.3897288" y1="0.5340998" y2="0.7407057"><stop offset="0" stop-color="#d0e4ff"></stop><stop offset="1" stop-color="#a6c7fe"></stop></linearGradient><linearGradient gradientUnits="objectBoundingBox" id="linearGradient-9" node-id="26" spreadMethod="pad" x1="0.5" x2="0.5" y1="0.09794384" y2="0.93092936"><stop offset="0" stop-color="#5272e7"></stop><stop offset="1" stop-color="#8eafff"></stop></linearGradient><linearGradient gradientUnits="objectBoundingBox" id="linearGradient-10" node-id="29" spreadMethod="pad" x1="0.47625592" x2="0.5328069" y1="0.064684376" y2="1"><stop offset="0" stop-color="#f7df76"></stop><stop offset="1" stop-color="#eeb765"></stop></linearGradient><linearGradient gradientUnits="objectBoundingBox" id="linearGradient-11" node-id="32" spreadMethod="pad" x1="0.4762" x2="0.5328841" y1="0.064684376" y2="1"><stop offset="0" stop-color="#f7df76"></stop><stop offset="1" stop-color="#eeb765"></stop></linearGradient><radialGradient cx="0.36190832" cy="0.5927583" fx="0.36190832" fy="0.5927583" gradientUnits="objectBoundingBox" id="radialGradient-12" node-id="35" r="0.63407344" rev="1" spreadMethod="pad"><stop offset="0" stop-color="#bfd7ff"></stop><stop offset="1" stop-color="#7195ff"></stop></radialGradient><mask height="123.30005" id="mask-2" maskUnits="userSpaceOnUse" node-id="41" width="636.17633" x="4.130333" y="618.225"><path d="M 956.00 713.00 L 955.80 717.00 L 955.10 721.10 L 953.90 725.10 L 952.30 729.20 L 950.10 733.30 L 947.40 737.50 L 943.90 742.00 L 939.70 746.60 L 934.70 751.20 L 928.90 756.00 L 922.20 760.80 L 913.90 766.10 L 904.40 771.50 L 893.60 776.90 L 881.40 782.40 L 869.40 787.20 L 856.20 792.00 L 841.80 796.70 L 826.00 801.40 L 794.00 809.60 L 758.30 817.00 L 721.50 823.20 L 681.90 828.50 L 655.20 831.30 L 627.50 833.70 L 599.00 835.60 L 570.50 836.90 L 541.50 837.70 L 512.00 838.00 L 482.50 837.70 L 453.50 836.90 L 425.00 835.60 L 396.50 833.70 L 368.80 831.30 L 342.10 828.50 L 302.50 823.20 L 265.70 817.00 L 230.00 809.60 L 198.00 801.40 L 182.20 796.70 L 167.80 792.00 L 154.60 787.20 L 142.60 782.40 L 130.40 776.90 L 119.60 771.50 L 110.10 766.10 L 101.80 760.80 L 95.10 756.00 L 89.30 751.20 L 84.30 746.60 L 80.10 742.00 L 76.60 737.50 L 73.90 733.30 L 71.70 729.20 L 70.10 725.10 L 68.90 721.10 L 68.20 717.00 L 68.00 713.00 L 68.20 709.00 L 68.90 705.00 L 70.10 700.90 L 71.70 696.80 L 73.90 692.70 L 76.60 688.50 L 80.10 684.00 L 84.30 679.40 L 89.30 674.80 L 95.10 670.00 L 101.80 665.20 L 110.10 659.90 L 119.60 654.50 L 130.40 649.10 L 142.60 643.60 L 154.60 638.80 L 167.80 634.00 L 182.20 629.30 L 198.00 624.60 L 230.00 616.40 L 265.70 609.00 L 302.50 602.80 L 342.10 597.50 L 368.80 594.70 L 396.50 592.30 L 425.00 590.40 L 453.50 589.10 L 482.50 588.30 L 512.00 588.00 L 541.50 588.30 L 570.50 589.10 L 599.00 590.40 L 627.50 592.30 L 655.20 594.70 L 681.90 597.50 L 721.50 602.80 L 758.30 609.00 L 794.00 616.40 L 826.00 624.60 L 841.80 629.30 L 856.20 634.00 L 869.40 638.80 L 881.40 643.60 L 893.60 649.10 L 904.40 654.50 L 913.90 659.90 L 922.20 665.20 L 928.90 670.00 L 934.70 674.80 L 939.70 679.40 L 943.90 684.00 L 947.40 688.50 L 950.10 692.70 L 952.30 696.80 L 953.90 700.90 L 955.10 705.00 L 955.80 709.00 L 956.00 713.00 Z" fill="#ffffff" fill-rule="evenodd" node-id="126" stroke="none" target-height="250" target-width="888" target-x="68" target-y="588"></path></mask></defs><path d="M 0.00 0.00 L 1024.00 0.00 L 1024.00 1024.00 L 0.00 1024.00 Z" fill="#ffffff" fill-opacity="0" fill-rule="nonzero" node-id="132" stroke="none" target-height="1024" target-width="1024" target-x="0" target-y="0"></path><g node-id="138"><g node-id="141"><path d="M 956.00 713.00 L 955.80 717.00 L 955.10 721.10 L 953.90 725.10 L 952.30 729.20 L 950.10 733.30 L 947.40 737.50 L 943.90 742.00 L 939.70 746.60 L 934.70 751.20 L 928.90 756.00 L 922.20 760.80 L 913.90 766.10 L 904.40 771.50 L 893.60 776.90 L 881.40 782.40 L 869.40 787.20 L 856.20 792.00 L 841.80 796.70 L 826.00 801.40 L 794.00 809.60 L 758.30 817.00 L 721.50 823.20 L 681.90 828.50 L 655.20 831.30 L 627.50 833.70 L 599.00 835.60 L 570.50 836.90 L 541.50 837.70 L 512.00 838.00 L 482.50 837.70 L 453.50 836.90 L 425.00 835.60 L 396.50 833.70 L 368.80 831.30 L 342.10 828.50 L 302.50 823.20 L 265.70 817.00 L 230.00 809.60 L 198.00 801.40 L 182.20 796.70 L 167.80 792.00 L 154.60 787.20 L 142.60 782.40 L 130.40 776.90 L 119.60 771.50 L 110.10 766.10 L 101.80 760.80 L 95.10 756.00 L 89.30 751.20 L 84.30 746.60 L 80.10 742.00 L 76.60 737.50 L 73.90 733.30 L 71.70 729.20 L 70.10 725.10 L 68.90 721.10 L 68.20 717.00 L 68.00 713.00 L 68.20 709.00 L 68.90 705.00 L 70.10 700.90 L 71.70 696.80 L 73.90 692.70 L 76.60 688.50 L 80.10 684.00 L 84.30 679.40 L 89.30 674.80 L 95.10 670.00 L 101.80 665.20 L 110.10 659.90 L 119.60 654.50 L 130.40 649.10 L 142.60 643.60 L 154.60 638.80 L 167.80 634.00 L 182.20 629.30 L 198.00 624.60 L 230.00 616.40 L 265.70 609.00 L 302.50 602.80 L 342.10 597.50 L 368.80 594.70 L 396.50 592.30 L 425.00 590.40 L 453.50 589.10 L 482.50 588.30 L 512.00 588.00 L 541.50 588.30 L 570.50 589.10 L 599.00 590.40 L 627.50 592.30 L 655.20 594.70 L 681.90 597.50 L 721.50 602.80 L 758.30 609.00 L 794.00 616.40 L 826.00 624.60 L 841.80 629.30 L 856.20 634.00 L 869.40 638.80 L 881.40 643.60 L 893.60 649.10 L 904.40 654.50 L 913.90 659.90 L 922.20 665.20 L 928.90 670.00 L 934.70 674.80 L 939.70 679.40 L 943.90 684.00 L 947.40 688.50 L 950.10 692.70 L 952.30 696.80 L 953.90 700.90 L 955.10 705.00 L 955.80 709.00 L 956.00 713.00 Z" fill="#f1f5fd" fill-rule="evenodd" group-id="1,4" node-id="136" stroke="none" target-height="250" target-width="888" target-x="68" target-y="588"></path></g><path d="M 86.50 654.00 L 57.10 692.90 L 68.00 731.30 L 372.00 725.50 L 418.60 710.00 L 455.50 698.30 L 484.10 689.80 L 505.80 683.80 L 521.80 679.90 L 533.20 677.60 L 555.30 674.50 L 566.60 672.10 L 572.00 670.60 L 577.10 668.70 L 581.20 666.80 L 583.60 665.20 L 585.40 663.50 L 586.60 661.90 L 587.10 660.50 L 587.30 659.10 L 587.00 657.60 L 586.30 655.90 L 584.90 653.90 L 582.40 651.60 L 578.50 648.80 L 576.10 647.60 L 571.00 645.80 L 562.00 643.30 L 547.20 639.70 L 524.80 634.90 L 492.50 628.50 L 469.30 648.80 L 86.50 654.00 Z" fill="url(#linearGradient-3)" fill-rule="evenodd" group-id="1,5" id="路径-4" node-id="44" stroke="none" target-height="102.79999" target-width="530.2" target-x="57.1" target-y="628.5"></path></g><path d="M 711.00 345.50 L 783.30 394.90 L 783.60 401.60 L 784.20 408.20 L 785.30 414.80 L 786.80 421.40 L 788.70 427.80 L 791.00 434.10 L 793.70 440.30 L 796.70 446.30 L 803.90 457.80 L 812.50 468.50 L 817.20 473.50 L 822.30 478.20 L 827.60 482.60 L 833.30 486.80 L 833.30 570.30 L 827.60 573.30 L 822.30 576.60 L 817.20 580.20 L 812.50 584.20 L 808.00 588.50 L 803.90 593.00 L 800.20 597.90 L 796.70 603.10 L 793.70 608.40 L 791.00 614.00 L 788.70 619.80 L 786.80 625.90 L 785.30 632.10 L 784.20 638.40 L 783.60 644.90 L 783.30 651.60 L 711.00 685.80 L 705.10 682.00 L 699.00 678.60 L 692.90 675.70 L 686.70 673.20 L 680.30 671.00 L 673.90 669.30 L 667.40 668.00 L 661.00 667.10 L 654.50 666.60 L 648.00 666.60 L 641.70 667.00 L 635.30 667.80 L 629.10 669.00 L 622.90 670.60 L 616.90 672.70 L 611.00 675.20 L 538.70 625.80 L 538.40 619.10 L 537.80 612.50 L 536.70 605.90 L 535.20 599.40 L 533.30 593.00 L 531.00 586.70 L 528.30 580.50 L 525.30 574.40 L 521.80 568.60 L 518.10 562.90 L 514.00 557.50 L 509.50 552.20 L 504.80 547.20 L 499.70 542.50 L 494.40 538.10 L 488.70 534.00 L 488.70 450.40 L 494.40 447.50 L 499.70 444.20 L 504.80 440.60 L 509.50 436.60 L 514.00 432.30 L 518.10 427.70 L 521.80 422.90 L 525.30 417.70 L 528.30 412.30 L 531.00 406.70 L 533.30 400.90 L 535.20 394.80 L 536.70 388.70 L 537.80 382.30 L 538.40 375.80 L 538.70 369.10 L 611.00 335.00 L 616.90 338.80 L 623.00 342.10 L 629.10 345.10 L 635.30 347.60 L 641.70 349.70 L 648.10 351.50 L 654.60 352.80 L 661.00 353.60 L 667.50 354.10 L 674.00 354.20 L 680.30 353.80 L 686.70 353.00 L 692.90 351.80 L 699.10 350.10 L 705.10 348.00 L 711.00 345.50 Z M 661.50 438.40 L 655.50 438.10 L 649.80 438.10 L 644.20 438.70 L 638.90 439.70 L 633.60 441.10 L 628.60 443.00 L 623.80 445.20 L 619.30 447.80 L 615.00 450.70 L 610.90 454.00 L 607.20 457.70 L 603.80 461.60 L 600.70 465.80 L 598.00 470.30 L 595.60 475.10 L 593.60 480.20 L 592.10 485.40 L 591.00 490.80 L 590.30 496.40 L 590.00 502.40 L 590.20 508.30 L 590.90 514.10 L 592.10 519.80 L 593.60 525.40 L 595.60 530.80 L 598.00 536.10 L 600.70 541.20 L 603.80 546.10 L 607.20 550.80 L 615.00 559.30 L 619.30 563.20 L 623.80 566.80 L 628.60 570.00 L 633.60 572.90 L 638.90 575.40 L 644.30 577.50 L 649.90 579.30 L 655.60 580.60 L 661.50 581.40 L 667.50 581.80 L 673.20 581.70 L 678.80 581.20 L 684.10 580.20 L 689.40 578.70 L 694.40 576.90 L 699.20 574.70 L 703.70 572.10 L 708.00 569.10 L 712.10 565.80 L 715.80 562.20 L 719.20 558.20 L 722.30 554.00 L 725.00 549.50 L 727.40 544.80 L 729.40 539.70 L 730.90 534.50 L 732.00 529.10 L 732.70 523.40 L 733.00 517.50 L 732.80 511.50 L 732.10 505.70 L 730.90 500.10 L 729.40 494.50 L 727.40 489.00 L 725.00 483.80 L 722.30 478.70 L 719.20 473.80 L 712.10 464.70 L 703.70 456.70 L 699.20 453.10 L 694.40 449.90 L 689.40 447.00 L 684.10 444.50 L 678.70 442.30 L 673.10 440.60 L 667.40 439.30 L 661.50 438.40 Z" fill="url(#linearGradient-4)" fill-rule="evenodd" id="形状结合" node-id="45" stroke="none" target-height="350.8" target-width="344.59998" target-x="488.7" target-y="335"></path><path d="M 668.00 365.50 L 740.30 414.90 L 740.60 421.60 L 741.20 428.20 L 742.30 434.80 L 743.80 441.40 L 745.70 447.80 L 748.00 454.10 L 750.70 460.30 L 753.70 466.30 L 757.20 472.20 L 760.90 477.80 L 769.50 488.50 L 774.20 493.50 L 779.30 498.20 L 784.60 502.60 L 790.30 506.80 L 790.30 590.30 L 784.60 593.30 L 779.30 596.60 L 774.20 600.20 L 769.50 604.20 L 765.00 608.50 L 760.90 613.00 L 757.20 617.90 L 753.70 623.10 L 750.70 628.40 L 748.00 634.00 L 745.70 639.80 L 743.80 645.90 L 742.30 652.10 L 741.20 658.40 L 740.60 664.90 L 740.30 671.60 L 668.00 705.80 L 662.10 702.00 L 656.00 698.60 L 649.90 695.70 L 643.70 693.20 L 637.30 691.00 L 630.90 689.30 L 624.40 688.00 L 618.00 687.10 L 611.50 686.60 L 605.00 686.60 L 598.70 687.00 L 592.30 687.80 L 586.10 689.00 L 579.90 690.60 L 573.90 692.70 L 568.00 695.20 L 495.70 645.80 L 495.40 639.10 L 494.80 632.50 L 493.70 625.90 L 492.20 619.40 L 490.30 613.00 L 488.00 606.70 L 485.30 600.50 L 482.30 594.40 L 475.10 582.90 L 466.50 572.20 L 461.80 567.20 L 456.70 562.50 L 451.40 558.10 L 445.70 554.00 L 445.70 470.40 L 451.40 467.50 L 456.70 464.20 L 461.80 460.60 L 466.50 456.60 L 471.00 452.30 L 475.10 447.70 L 478.80 442.90 L 482.30 437.70 L 485.30 432.30 L 488.00 426.70 L 490.30 420.90 L 492.20 414.80 L 493.70 408.70 L 494.80 402.30 L 495.40 395.80 L 495.70 389.10 L 568.00 355.00 L 583.20 364.90 L 593.50 370.60 L 604.00 375.00 L 609.40 376.60 L 618.00 378.00 L 623.60 378.20 L 629.20 377.80 L 635.00 377.00 L 640.80 375.70 L 652.10 372.20 L 660.30 369.00 L 668.00 365.50 Z M 618.50 458.40 L 612.50 458.10 L 606.80 458.10 L 601.20 458.70 L 595.90 459.70 L 590.60 461.10 L 585.60 463.00 L 580.80 465.20 L 576.30 467.80 L 572.00 470.70 L 567.90 474.00 L 564.20 477.70 L 560.80 481.60 L 557.70 485.80 L 555.00 490.30 L 552.60 495.10 L 550.60 500.20 L 549.10 505.40 L 548.00 510.80 L 547.30 516.40 L 547.00 522.40 L 547.20 528.30 L 547.90 534.10 L 549.10 539.80 L 550.60 545.40 L 552.60 550.80 L 555.00 556.10 L 557.70 561.20 L 560.80 566.10 L 564.20 570.80 L 572.00 579.30 L 576.30 583.20 L 580.80 586.80 L 585.60 590.00 L 590.60 592.90 L 595.90 595.40 L 601.30 597.50 L 606.90 599.30 L 612.60 600.60 L 618.50 601.40 L 624.50 601.80 L 630.20 601.70 L 635.80 601.20 L 641.10 600.20 L 646.40 598.70 L 651.40 596.90 L 656.20 594.70 L 660.70 592.10 L 665.00 589.10 L 669.10 585.80 L 672.80 582.20 L 676.20 578.20 L 679.30 574.00 L 682.00 569.50 L 684.40 564.80 L 686.40 559.70 L 687.90 554.50 L 689.00 549.10 L 689.70 543.40 L 690.00 537.50 L 689.80 531.50 L 689.10 525.70 L 687.90 520.10 L 686.40 514.50 L 684.40 509.00 L 682.00 503.80 L 679.30 498.70 L 676.20 493.80 L 669.10 484.70 L 660.70 476.70 L 656.20 473.10 L 651.40 469.90 L 646.40 467.00 L 641.10 464.50 L 635.70 462.30 L 630.10 460.60 L 624.40 459.30 L 618.50 458.40 Z" fill="url(#linearGradient-5)" fill-rule="evenodd" id="形状结合备份" node-id="46" stroke="none" target-height="350.8" target-width="344.59998" target-x="445.7" target-y="355"></path><path d="M 740.30 414.50 L 783.30 395.00 L 711.00 345.50 L 668.00 365.50 Z" fill="url(#linearGradient-6)" fill-rule="evenodd" id="路径-31" node-id="47" stroke="none" target-height="69" target-width="115.29999" target-x="668" target-y="345.5"></path><g node-id="139"><path d="M 480.00 510.40 L 485.20 510.20 L 488.20 510.50 L 492.60 511.60 L 497.10 513.20 L 501.50 515.40 L 505.40 517.90 L 507.80 519.80 L 511.40 524.00 L 512.70 526.30 L 513.50 528.60 L 513.80 531.00 L 502.00 549.60 L 538.00 543.50 L 543.00 543.30 L 545.90 543.70 L 550.20 544.80 L 554.60 546.40 L 558.90 548.40 L 565.10 552.80 L 568.70 556.80 L 570.00 559.00 L 570.70 561.20 L 571.00 563.50 L 558.70 668.80 L 557.70 672.50 L 556.10 676.10 L 554.00 679.40 L 551.50 682.30 L 548.60 684.90 L 545.30 687.00 L 541.80 688.60 L 378.30 725.50 L 372.10 725.70 L 368.70 725.20 L 365.40 724.40 L 362.10 723.00 L 358.90 721.30 L 356.00 719.10 L 353.40 716.40 L 351.00 713.30 L 348.40 707.80 L 347.60 704.50 L 347.00 700.80 L 347.00 596.80 L 347.30 593.00 L 348.30 589.30 L 349.90 585.70 L 352.00 582.50 L 354.50 579.50 L 357.40 576.90 L 360.70 574.80 L 364.20 573.30 L 368.00 572.30 L 405.00 566.00 L 405.00 545.00 L 405.80 539.10 L 406.70 536.20 L 409.60 530.80 L 413.60 526.20 L 418.40 522.50 L 424.00 520.00 L 427.00 519.30 L 480.00 510.40 Z M 480.00 527.40 L 427.00 536.30 L 424.50 537.40 L 422.70 539.50 L 422.00 542.20 L 422.00 563.20 L 485.00 552.50 L 484.80 530.20 L 484.30 529.10 L 482.50 527.60 L 480.00 527.40 Z" fill="url(#linearGradient-7)" fill-rule="nonzero" group-id="2" id="形状结合" node-id="49" stroke="none" target-height="215.5" target-width="224" target-x="347" target-y="510.2"></path><path d="M 493.00 517.40 L 499.00 517.20 L 504.10 518.50 L 508.60 521.20 L 512.00 525.00 L 513.30 527.30 L 514.20 529.80 L 514.80 532.60 L 515.00 556.60 L 551.00 550.50 L 556.70 550.40 L 561.60 551.60 L 565.90 554.20 L 569.10 557.90 L 571.20 562.50 L 572.00 568.00 L 572.00 672.00 L 571.70 675.80 L 570.70 679.50 L 569.10 683.10 L 567.00 686.40 L 564.50 689.30 L 561.60 691.90 L 558.30 694.00 L 554.80 695.60 L 551.00 696.50 L 381.00 725.30 L 378.00 725.60 L 372.80 725.00 L 368.10 723.10 L 364.40 719.90 L 362.90 717.90 L 360.80 713.40 L 360.00 707.80 L 360.00 603.80 L 360.30 600.00 L 361.30 596.30 L 362.90 592.70 L 365.00 589.50 L 367.50 586.50 L 370.40 583.90 L 373.70 581.80 L 377.20 580.30 L 381.00 579.30 L 418.00 573.00 L 418.00 552.00 L 418.80 546.10 L 419.70 543.20 L 422.60 537.80 L 426.60 533.20 L 431.40 529.50 L 437.00 527.00 L 440.00 526.30 L 493.00 517.40 Z M 493.00 534.40 L 440.00 543.30 L 437.50 544.40 L 435.70 546.50 L 435.00 549.20 L 435.00 570.20 L 498.00 559.50 L 497.80 537.20 L 497.30 536.10 L 495.50 534.60 L 493.00 534.40 Z" fill="url(#linearGradient-8)" fill-rule="nonzero" group-id="2" id="形状结合备份-2" node-id="50" stroke="none" target-height="208.39996" target-width="212" target-x="360" target-y="517.2"></path><path d="M 476.00 589.00 L 480.30 589.30 L 484.40 590.10 L 488.30 591.30 L 474.60 610.40 L 473.90 612.10 L 473.60 615.80 L 474.50 619.30 L 475.40 621.00 L 478.00 623.70 L 481.50 625.40 L 485.20 625.80 L 488.80 624.90 L 492.00 622.80 L 493.30 621.30 L 505.10 605.20 L 508.30 611.30 L 509.40 614.70 L 510.80 621.80 L 511.00 625.50 L 510.70 630.50 L 509.70 635.20 L 508.20 639.70 L 506.20 644.00 L 503.70 647.80 L 500.70 651.30 L 497.40 654.40 L 493.70 657.00 L 489.60 659.10 L 483.10 661.20 L 476.00 662.00 L 469.60 661.40 L 446.90 692.60 L 445.20 694.60 L 443.30 696.10 L 441.20 697.20 L 438.90 698.00 L 436.60 698.40 L 434.20 698.40 L 431.80 697.90 L 429.50 697.10 L 427.30 695.70 L 425.40 694.00 L 423.80 692.10 L 422.70 690.00 L 421.90 687.70 L 421.50 685.40 L 421.60 683.00 L 422.00 680.60 L 422.90 678.30 L 424.20 676.10 L 446.60 645.30 L 443.60 639.30 L 442.50 636.00 L 441.20 629.10 L 441.00 625.50 L 441.30 620.50 L 442.30 615.80 L 443.80 611.30 L 445.80 607.00 L 448.30 603.20 L 451.30 599.70 L 454.60 596.60 L 458.30 594.00 L 462.40 591.90 L 465.60 590.60 L 472.40 589.20 L 476.00 589.00 Z" fill="#92ade5" fill-rule="evenodd" group-id="2" id="形状结合" node-id="51" stroke="none" target-height="109.400024" target-width="89.5" target-x="421.5" target-y="589"></path></g><path d="M 790.20 506.80 L 833.30 486.80 L 833.30 570.30 L 790.20 590.50 Z" fill="url(#linearGradient-9)" fill-rule="evenodd" id="路径-32" node-id="52" stroke="none" target-height="103.70001" target-width="43.099976" target-x="790.2" target-y="486.8"></path><path d="M 370.60 338.00 L 372.00 369.00 L 389.00 371.60 L 378.60 412.00 L 372.90 382.20 L 355.00 379.50 Z" fill="url(#linearGradient-10)" fill-rule="evenodd" id="路径-33" node-id="53" stroke="none" target-height="74" target-width="34" target-x="355" target-y="338"></path><g node-id="140"><path d="M 335.80 381.10 L 347.40 398.50 L 358.20 394.10 L 366.20 421.10 L 352.50 405.80 L 341.20 410.50 Z" fill="url(#linearGradient-11)" fill-rule="evenodd" group-id="3" id="路径-33备份" node-id="54" stroke="none" target-height="40" target-width="30.400024" target-x="335.8" target-y="381.1"></path></g><path d="M 849.00 741.50 L 848.70 744.30 L 848.00 746.90 L 846.90 749.30 L 845.30 751.50 L 843.50 753.30 L 841.30 754.90 L 838.90 756.00 L 836.30 756.70 L 833.50 757.00 L 830.70 756.70 L 828.10 756.00 L 825.70 754.90 L 823.50 753.30 L 821.70 751.50 L 820.10 749.30 L 819.00 746.90 L 818.30 744.30 L 818.00 741.50 L 818.30 738.70 L 819.00 736.10 L 820.10 733.70 L 821.70 731.50 L 823.50 729.70 L 825.70 728.10 L 828.10 727.00 L 830.70 726.30 L 833.50 726.00 L 836.30 726.30 L 838.90 727.00 L 841.30 728.10 L 843.50 729.70 L 845.30 731.50 L 846.90 733.70 L 848.00 736.10 L 848.70 738.70 L 849.00 741.50 Z" fill="url(#radialGradient-12)" fill-rule="evenodd" id="椭圆形备份-3" node-id="55" stroke="none" target-height="31" target-width="31" target-x="818" target-y="726"></path></svg>