<svg xmlns="http://www.w3.org/2000/svg" version="1.1" xmlns:xlink="http://www.w3.org/1999/xlink" width="512" height="512" x="0" y="0" viewBox="0 0 512 512" style="enable-background:new 0 0 512 512" xml:space="preserve" class=""><g><path fill="#2196f3" fill-rule="evenodd" d="M256 512c140.997 0 256-115.003 256-256S396.997 0 256 0 0 115.003 0 256s115.003 256 256 256z" clip-rule="evenodd" opacity="1" data-original="#2196f3"></path><path fill="#ffffff" d="M126.318 206.456h56.704v163.048c-1.604 7.982-8.984 13.959-17.324 13.959h-39.38c-9.549 0-17.318-7.775-17.318-17.324V223.774c0-9.548 7.769-17.318 17.318-17.318zm269.641 18.977c-8.856-11.353-24.777-18.976-39.617-18.976h-83.529a4.248 4.248 0 0 1-3.383-1.683 4.245 4.245 0 0 1-.711-3.718l10.557-37.862c10.162-36.434-3.25-46.603-34.089-59.723-2.885-1.227-5.692-1.245-8.589-.061-2.897 1.178-4.884 3.153-6.087 6.044l-38.985 93.594v164.045l39.283 16.37h104.03c30.767 0 42.284-32.674 45.807-46.718l21.509-85.649c2.782-11.085-1.834-20.075-6.196-25.663z" opacity="1" data-original="#ffffff"></path></g></svg>