<svg xmlns="http://www.w3.org/2000/svg" version="1.1" xmlns:xlink="http://www.w3.org/1999/xlink" width="512" height="512" x="0" y="0" viewBox="0 0 32 32" style="enable-background:new 0 0 512 512" xml:space="preserve" class=""><g><linearGradient id="a" x1="16" x2="16" y1=".918" y2="29.85" gradientUnits="userSpaceOnUse"><stop stop-opacity="1" stop-color="#f3485c" offset="0"></stop><stop stop-opacity="1" stop-color="#f3485c" offset="1"></stop></linearGradient><path fill="url(#a)" d="m27.488 8.337-10.5-5.925a1.987 1.987 0 0 0-1.976 0l-10.5 5.925a2.025 2.025 0 0 0-1.012 1.75v11.825a2.025 2.025 0 0 0 1.012 1.75l10.5 5.926a1.988 1.988 0 0 0 1.976 0l10.5-5.925a2.025 2.025 0 0 0 1.012-1.75V10.088a2.024 2.024 0 0 0-1.012-1.75z" opacity="1" data-original="url(#a)" class=""></path></g></svg>