<svg t="1732777038349" class="icon" viewBox="0 0 1024 1024" version="1.1"
    xmlns="http://www.w3.org/2000/svg" p-id="10772" width="200" height="200">
    <path
        d="M916.224 540.48c0 65.792-43.232 121.648-102.912 140.768l-38.256-8.416-105.968-23.712-40.56-77.28 48.592-42.464 93.728-82.24 50.88-44.384a147.648 147.648 0 0 1 94.496 137.712z"
        fill="#007BA3" p-id="10773"></path>
    <path
        d="M639.248 664.8l-26.784 139.632-4.96 25.632a218.8 218.8 0 0 1-182.496 97.92c-120.88 0-218.816-97.92-218.816-218.816 0-15.68 1.52-30.992 4.592-45.92l18.736-16.816 161.056-146.144 9.184-8.416 196.64 89.52 42.848 83.392z"
        fill="#00BEB1" p-id="10774"></path>
    <path
        d="M369.552 207.632l-28.704 151.872-133.504-31.36a108 108 0 0 1-6.128-35.2c0-58.528 47.44-105.6 105.968-105.6a102.288 102.288 0 0 1 62.368 20.288z"
        fill="#FF419A" p-id="10775"></path>
    <path
        d="M804.512 330.832c0 16.064-1.92 31.744-4.96 47.04l-18 16.08-159.904 140.4-16.448 14.528-194.72-88v-0.368l-38.256-84.544 26.4-136.192 6.112-31.76C444.144 150.256 510.704 112 586.064 112c120.512 0 218.448 97.936 218.448 218.832z"
        fill="#FFCF00" p-id="10776"></path>
    <path
        d="M808.336 749.344c0 58.528-47.424 105.968-105.584 105.968a104.512 104.512 0 0 1-61.968-20.272l29.84-153.792 131.6 31.36a115.52 115.52 0 0 1 6.112 36.736z"
        fill="#84CA27" p-id="10777"></path>
    <path
        d="M376.032 468.144l-52.4 47.44-81.12 73.44-53.168 48.208C134.624 615.424 96 562.24 96 499.888a147.456 147.456 0 0 1 100.992-140l35.968 8.4 107.872 24.864 35.2 74.992z"
        fill="#00ABE3" p-id="10778"></path>
</svg>