<svg xmlns="http://www.w3.org/2000/svg" viewBox="0 0 24 24" width="192px" height="192px">
    <script xmlns=""
        src="chrome-extension://fjnbnpbmkenffdnngjfgmeleoegfcffe/static/js/contentInt.js" />
    <path fill="#F31001"
        d="M2.98,12.528c1.822,1.782,6.232,4.022,7.267,4.53c0,0,0.06,0.03,0.1-0.01l0.02-0.04v-0.04 c-2.827-6.162-6.66-10.801-6.66-10.801S1.865,7.929,1.765,9.79v0.348C1.845,11.642,2.98,12.528,2.98,12.528z" />
    <path fill="#F31001"
        d="M9.073,3.23C7.641,3.604,6.589,4.853,6.514,6.358v0.008v0.408c0.03,0.597,0.159,1.045,0.159,1.045 c0.657,2.887,3.843,7.616,4.53,8.611c0.05,0.05,0.1,0.03,0.1,0.03c0.036-0.016,0.06-0.051,0.06-0.092c0-0.003,0-0.006,0-0.009 C12.417,5.807,10.257,3,10.257,3C9.939,3.02,9.073,3.229,9.073,3.23L9.073,3.23z" />
    <polygon fill="#F31001" points="14.418,18.501 14.427,18.501 14.428,18.501" />
    <path fill="#F31001"
        d="M14.369,18.65c0.697,0.508,2.837,1.991,3.863,2.29c0,0,0.159,0.05,0.428,0.06h0.14 c0.687-0.02,1.891-0.368,2.987-2.25l-7.359-0.249c-0.003,0-0.068,0.001-0.088,0.049C14.339,18.551,14.329,18.621,14.369,18.65z" />
    <path fill="#F31001"
        d="M2.781,17.645c0.697,0.299,1.394,0.309,1.394,0.309c0.119,0.02,4.38,0,5.515,0c0.05,0,0.08-0.05,0.08-0.05 v-0.06c0-0.03-0.03-0.05-0.03-0.05c-3.225-2.18-9.477-5.515-9.477-5.515c-0.149,0.458-0.199,0.896-0.209,1.294v0.07 c0,1.065,0.398,1.812,0.398,1.812C1.248,17.137,2.781,17.645,2.781,17.645z" />
    <path fill="#F31001"
        d="M13.672,17.048l0.04,0.01h0.06c1.055-0.528,5.435-2.757,7.247-4.52c0,0,1.145-0.926,1.205-2.409 c0.139-2.051-1.931-3.952-1.931-3.962c0,0-3.833,4.639-6.64,10.752C13.652,16.918,13.622,16.998,13.672,17.048z" />
    <path fill="#F31001"
        d="M14.906,3.22c0,0-0.567-0.139-1.165-0.219c0,0-2.17,2.797-1.115,13.37c0.01,0.07,0.06,0.08,0.06,0.08 c0.07,0.03,0.1-0.03,0.1-0.03c0.717-1.025,3.882-5.734,4.53-8.601c0,0,0.358-1.394,0.02-2.33C17.335,5.49,16.847,3.698,14.906,3.22z" />
    <path fill="#F31001"
        d="M5.757,20.94c0.956-0.249,3.146-1.772,3.863-2.29c0.06-0.05,0.04-0.09,0.04-0.09v0.01 c-0.02-0.08-0.1-0.08-0.1-0.08L2.213,18.75C3.01,20.174,4.354,21.269,5.757,20.94z" />
    <path fill="#F31001"
        d="M23.737,12.259c0,0-6.252,3.355-9.477,5.525c0,0-0.05,0.04-0.03,0.109c0,0,0.03,0.06,0.07,0.06 c1.155,0,5.535,0,5.645-0.02c0,0,0.568-0.02,1.264-0.289c0,0,1.553-0.498,2.359-2.26C23.567,15.385,24.294,13.942,23.737,12.259z" />
</svg>