<svg xmlns="http://www.w3.org/2000/svg" version="1.1" xmlns:xlink="http://www.w3.org/1999/xlink"
    width="512" height="512" x="0" y="0" viewBox="0 0 409.6 409.6"
    style="enable-background:new 0 0 512 512" xml:space="preserve" class=""><g><path d="M204.8 0C91.684 0 0 91.699 0 204.8s91.684 204.8 204.8 204.8c113.101 0 204.8-91.699 204.8-204.8S317.901 0 204.8 0zM102.4 238.935c-18.867 0-34.135-15.283-34.135-34.135 0-18.836 15.268-34.135 34.135-34.135 18.852 0 34.135 15.299 34.135 34.135 0 18.852-15.283 34.135-34.135 34.135zm102.4 0c-18.867 0-34.135-15.283-34.135-34.135 0-18.836 15.268-34.135 34.135-34.135 18.852 0 34.135 15.299 34.135 34.135 0 18.852-15.283 34.135-34.135 34.135zm102.4 0c-18.867 0-34.135-15.283-34.135-34.135 0-18.836 15.268-34.135 34.135-34.135 18.852 0 34.135 15.299 34.135 34.135 0 18.852-15.283 34.135-34.135 34.135z" fill="#000000" opacity="1" data-original="#000000"></path></g></svg>