<svg t="1732780993817" class="icon" viewBox="0 0 1464 1024" version="1.1"
    xmlns="http://www.w3.org/2000/svg" p-id="11773" width="200" height="200">
    <path
        d="M966.391735 491.587726a193.677976 193.677976 0 0 1 87.506009-23.017792c107.515916-2.247026 196.479648 82.997736 198.726674 190.371435a193.429097 193.429097 0 0 1-22.271154 94.375082l0.071108 0.014222c-1.919927 3.519866-4.031847 7.082398-6.250429 10.644929a196.401428 196.401428 0 0 1-16.198496 22.733358c-75.467356 95.093277-252.150422 192.838897-456.786204 197.08407-252.406412 5.262022-464.693459-120.74208-508.574459-242.195245l0.191993-0.078219c-7.914366-19.910355-12.671519-41.441981-13.133724-64.104232-1.813264-86.610043 56.602294-160.292578 136.841025-181.667766 0.113773 1.443501 0.213325 2.45324 0.213325 2.453241 1.486166-2.972332 3.142992-5.83089 4.920702-8.61834l0.440872-0.711084c1.834597-2.823004 3.8043-5.546456 5.92333-8.149024l0.071109-0.071108a93.976875 93.976875 0 0 1 53.878842-32.731201c47.52175-9.940956 94.133313 17.663329 109.108744 62.589622-0.298655-2.119031-0.568867-4.23095-0.995517-6.349981a94.119091 94.119091 0 0 0-29.8442-51.233609c27.454957-104.344481 124.901922-178.723878 236.961665-172.437894 112.265958 6.300205 200.923923 91.416972 216.240675 198.477794-12.0031 10.716037-22.99646 22.882686-32.340105 36.841267-2.808782 4.195396-5.247801 8.525898-7.69393 12.842179a193.521538 193.521538 0 0 1 42.992145-37.061704m-59.638623-479.427121l-0.952853-0.142217a73.113667 73.113667 0 0 0-14.719441-1.244397 72.843455 72.843455 0 0 0-30.277961 7.324166l-12.180871 7.295723c-9.236982 4.458497-19.455261 7.110841-30.27085 7.324166a72.999894 72.999894 0 0 1-27.725169-4.842483 74.471838 74.471838 0 0 1-12.223535-6.044215c-4.643379-2.858558-8.589896-6.59886-13.062615-9.684965a66.258816 66.258816 0 0 0-14.71233-7.6086 73.661202 73.661202 0 0 0-26.878979-4.501162 73.149221 73.149221 0 0 0-28.855793 6.570417 75.659348 75.659348 0 0 0-19.185049 12.586188l-1.301284 1.336839a73.376768 73.376768 0 0 1-44.314761 16.106054 73.127889 73.127889 0 0 1-30.733055-6.157988l-12.166649-6.584639a72.957229 72.957229 0 0 0-30.740166-6.150877c-4.970478 0.092441-9.798739 0.767971-14.484783 1.820375l-1.237286 0.24888C227.070486 83.31168-1.329727 288.516329 3.63364 526.96416c5.901998 282.762592 337.743615 505.189699 741.212733 496.791796 403.469118-8.390792 725.760876-244.420938 719.865988-527.18353-4.9847-238.490496-241.825481-434.045735-557.959249-484.411821"
        fill="#0091FF" p-id="11774"></path>
</svg>