<svg xmlns="http://www.w3.org/2000/svg" width="24" height="24" viewBox="0 0 24 24">
    <path fill="currentColor"
        d="M1.893 3.078C.239 1.537 4.846.009 11.963 0h.076c7.116.009 11.723 1.537 10.067 3.078c0 0-6.168 5.655-8.301 7.473c-.404.346-1.084.607-1.766.616h-.076c-.682-.009-1.362-.271-1.767-.616c-2.132-1.818-8.301-7.473-8.303-7.473m20.549 2.771V8.58c0 .3-.115.698-.319.885c-1.332 1.222-6.47 5.925-8.319 7.502c-.405.345-1.085.606-1.767.615h-.072c-.683-.009-1.362-.27-1.767-.615c-1.849-1.577-6.987-6.28-8.32-7.502c-.204-.187-.318-.585-.318-.885V5.849c1.96 1.788 7.163 6.505 8.638 7.764c.404.346 1.084.607 1.767.616h.072c.682-.009 1.362-.271 1.767-.616c1.474-1.258 6.678-5.973 8.638-7.764m0 6.418v2.73c0 .301-.115.698-.319.885c-1.332 1.222-6.47 5.926-8.319 7.502c-.405.346-1.085.607-1.767.616h-.072c-.683-.009-1.362-.271-1.767-.616c-1.849-1.576-6.987-6.28-8.32-7.502c-.204-.187-.318-.585-.318-.885v-2.73c1.96 1.788 7.163 6.505 8.638 7.764c.404.346 1.084.606 1.767.615h.072c.682-.009 1.362-.27 1.767-.615c1.474-1.258 6.678-5.976 8.638-7.764" />
</svg>